<svg width="80" height="50" viewBox="0 0 80 50" fill="none"
    xmlns="http://www.w3.org/2000/svg">
    <path d="M6.336 47H8.544V32.552H14.136V30.68H0.744V32.552H6.336V47ZM24.3666 47H26.6706L20.2386 30.68H17.6946L11.2866 47H13.4706L15.0066 43.088H22.8306L24.3666 47ZM18.4386 34.256L18.9186 32.816L19.3986 34.256L22.1586 41.312H15.6786L18.4386 34.256ZM27.0945 47H37.5105V45.2H29.3025V30.68H27.0945V47ZM38.2292 47H44.7812C48.2612 47 50.3732 45.32 50.3732 42.416C50.3732 40.472 49.2212 38.984 47.0852 38.432C48.6452 37.832 49.4852 36.584 49.4852 35.024C49.4852 32.36 47.3252 30.68 43.9652 30.68H38.2292V47ZM43.9172 32.456C45.9572 32.456 47.2052 33.488 47.2052 35.144C47.2052 36.704 45.9812 37.76 43.8692 37.76H40.4372V32.456H43.9172ZM44.3972 39.536C46.7012 39.536 48.1172 40.64 48.1172 42.368C48.1172 44.096 46.8212 45.224 44.7332 45.224H40.4372V39.536H44.3972ZM58.4601 47.288C63.2121 47.288 66.1641 44.072 66.1641 38.864C66.1641 33.656 63.2121 30.392 58.4601 30.392C53.6841 30.392 50.7561 33.656 50.7561 38.864C50.7561 44.072 53.6841 47.288 58.4601 47.288ZM58.4601 45.392C55.0521 45.392 53.0121 42.92 53.0121 38.864C53.0121 34.784 55.0521 32.288 58.4601 32.288C61.8681 32.288 63.9081 34.784 63.9081 38.864C63.9081 42.92 61.8681 45.392 58.4601 45.392ZM70.7751 47H72.9831V32.552H78.5751V30.68H65.1831V32.552H70.7751V47Z" fill="black"/>
    <path d="M1.872 21H4.08V13.488H12.624V21H14.832V4.68H12.624V11.688H4.08V4.68H1.872V21ZM27.4869 16.848H25.2789C24.8229 18.6 23.5509 19.464 21.7509 19.464C19.4469 19.464 18.1029 17.856 17.9829 15H27.3909V14.472C27.3909 10.416 25.2309 7.944 21.6309 7.944C18.0549 7.944 15.8229 10.32 15.8229 14.64C15.8229 18.792 18.0549 21.288 21.7509 21.288C24.6549 21.288 26.7909 19.824 27.4869 16.848ZM21.6309 9.768C23.6229 9.768 24.8949 11.064 25.1829 13.416H18.0549C18.3669 11.04 19.5909 9.768 21.6309 9.768ZM28.2853 21H30.3973V13.464C30.3973 11.64 31.6453 9.744 33.7573 9.744C35.6773 9.744 36.5413 10.992 36.5413 12.912V21H38.6533V12.48C38.6533 9.528 37.0453 7.944 34.3333 7.944C32.6533 7.944 31.2613 8.64 30.3973 9.984V8.256H28.2853V21ZM40.0997 21H42.2117V13.872C42.2117 11.568 43.3157 9.984 45.8597 9.984C46.3637 9.984 46.8197 10.032 47.1797 10.152V8.256C46.9397 8.064 46.4837 7.944 45.9797 7.944C44.4437 7.944 43.0757 8.664 42.2117 10.224V8.256H40.0997V21ZM47.7088 26.568C49.9168 26.568 50.7568 25.752 52.0288 22.68L57.9808 8.256H55.8208L52.4608 16.68L51.8848 18.384L51.3088 16.68L47.8528 8.256H45.5728L50.7808 20.592L50.3488 21.576C49.1008 24.432 48.6688 24.744 47.1088 24.744H46.4608V26.376C46.7248 26.448 47.2288 26.568 47.7088 26.568Z" fill="black"/>
</svg>
