<svg xmlns="http://www.w3.org/2000/svg" xmlns:xlink="http://www.w3.org/1999/xlink" width="80" zoomAndPan="magnify" viewBox="0 0 60 37.5" height="50" preserveAspectRatio="xMidYMid meet" version="1.0"><defs><g/></defs><g fill="#000000" fill-opacity="1"><g transform="translate(2.282072, 14.652775)"><g><path d="M 5.6875 -9.53125 L 5.6875 -3.515625 C 5.6875 -3.296875 5.6875 -3.082031 5.6875 -2.875 C 5.6875 -2.675781 5.671875 -2.476562 5.640625 -2.28125 C 5.617188 -2.082031 5.570312 -1.882812 5.5 -1.6875 C 5.4375 -1.5 5.34375 -1.316406 5.21875 -1.140625 C 4.9375 -0.734375 4.585938 -0.414062 4.171875 -0.1875 C 3.765625 0.03125 3.320312 0.140625 2.84375 0.140625 C 2.488281 0.140625 2.15625 0.078125 1.84375 -0.046875 C 1.539062 -0.179688 1.265625 -0.359375 1.015625 -0.578125 C 0.765625 -0.804688 0.554688 -1.066406 0.390625 -1.359375 C 0.222656 -1.648438 0.109375 -1.957031 0.046875 -2.28125 L 1.3125 -2.671875 C 1.34375 -2.472656 1.40625 -2.285156 1.5 -2.109375 C 1.59375 -1.941406 1.707031 -1.789062 1.84375 -1.65625 C 1.976562 -1.519531 2.128906 -1.410156 2.296875 -1.328125 C 2.472656 -1.253906 2.660156 -1.21875 2.859375 -1.21875 C 3.066406 -1.21875 3.253906 -1.257812 3.421875 -1.34375 C 3.585938 -1.4375 3.726562 -1.550781 3.84375 -1.6875 C 3.957031 -1.820312 4.050781 -1.984375 4.125 -2.171875 C 4.195312 -2.359375 4.25 -2.546875 4.28125 -2.734375 C 4.289062 -2.773438 4.296875 -2.867188 4.296875 -3.015625 C 4.304688 -3.160156 4.3125 -3.34375 4.3125 -3.5625 C 4.3125 -3.78125 4.3125 -4.023438 4.3125 -4.296875 C 4.3125 -4.578125 4.3125 -4.867188 4.3125 -5.171875 C 4.3125 -5.660156 4.304688 -6.160156 4.296875 -6.671875 C 4.296875 -7.179688 4.296875 -7.648438 4.296875 -8.078125 L 4.296875 -9.53125 Z M 5.6875 -9.53125 "/></g></g></g><g fill="#000000" fill-opacity="1"><g transform="translate(8.767781, 14.652775)"><g><path d="M 6.859375 -6.4375 L 6.859375 0 L 5.765625 0 L 5.5625 -0.734375 C 5.332031 -0.441406 5.039062 -0.21875 4.6875 -0.0625 C 4.34375 0.0820312 3.988281 0.15625 3.625 0.15625 C 3.175781 0.15625 2.757812 0.0703125 2.375 -0.09375 C 1.988281 -0.269531 1.648438 -0.507812 1.359375 -0.8125 C 1.066406 -1.125 0.832031 -1.484375 0.65625 -1.890625 C 0.488281 -2.304688 0.40625 -2.75 0.40625 -3.21875 C 0.40625 -3.6875 0.488281 -4.125 0.65625 -4.53125 C 0.832031 -4.945312 1.066406 -5.304688 1.359375 -5.609375 C 1.648438 -5.910156 1.988281 -6.148438 2.375 -6.328125 C 2.757812 -6.503906 3.175781 -6.59375 3.625 -6.59375 C 3.988281 -6.59375 4.335938 -6.519531 4.671875 -6.375 C 5.003906 -6.238281 5.300781 -6.023438 5.5625 -5.734375 L 5.765625 -6.4375 Z M 3.625 -1 C 3.882812 -1 4.128906 -1.054688 4.359375 -1.171875 C 4.597656 -1.285156 4.800781 -1.441406 4.96875 -1.640625 C 5.144531 -1.847656 5.28125 -2.085938 5.375 -2.359375 C 5.476562 -2.628906 5.53125 -2.914062 5.53125 -3.21875 C 5.53125 -3.519531 5.476562 -3.804688 5.375 -4.078125 C 5.28125 -4.347656 5.144531 -4.582031 4.96875 -4.78125 C 4.800781 -4.976562 4.597656 -5.132812 4.359375 -5.25 C 4.128906 -5.375 3.882812 -5.4375 3.625 -5.4375 C 3.363281 -5.4375 3.117188 -5.375 2.890625 -5.25 C 2.660156 -5.132812 2.457031 -4.976562 2.28125 -4.78125 C 2.113281 -4.582031 1.976562 -4.347656 1.875 -4.078125 C 1.78125 -3.804688 1.734375 -3.519531 1.734375 -3.21875 C 1.734375 -2.914062 1.78125 -2.628906 1.875 -2.359375 C 1.976562 -2.085938 2.113281 -1.847656 2.28125 -1.640625 C 2.457031 -1.441406 2.660156 -1.285156 2.890625 -1.171875 C 3.117188 -1.054688 3.363281 -1 3.625 -1 Z M 3.625 -1 "/></g></g></g><g fill="#000000" fill-opacity="1"><g transform="translate(16.208852, 14.652775)"><g><path d="M 3.75 -1.34375 C 3.832031 -1.414062 3.90625 -1.492188 3.96875 -1.578125 C 4.03125 -1.671875 4.0625 -1.773438 4.0625 -1.890625 C 4.0625 -2.035156 4.007812 -2.15625 3.90625 -2.25 C 3.800781 -2.351562 3.675781 -2.4375 3.53125 -2.5 C 3.382812 -2.570312 3.226562 -2.625 3.0625 -2.65625 C 2.90625 -2.695312 2.769531 -2.734375 2.65625 -2.765625 C 2.363281 -2.828125 2.085938 -2.910156 1.828125 -3.015625 C 1.566406 -3.117188 1.335938 -3.242188 1.140625 -3.390625 C 0.953125 -3.546875 0.800781 -3.722656 0.6875 -3.921875 C 0.582031 -4.117188 0.53125 -4.359375 0.53125 -4.640625 C 0.53125 -4.898438 0.59375 -5.144531 0.71875 -5.375 C 0.84375 -5.601562 1.007812 -5.804688 1.21875 -5.984375 C 1.425781 -6.160156 1.671875 -6.296875 1.953125 -6.390625 C 2.234375 -6.492188 2.535156 -6.546875 2.859375 -6.546875 C 3.128906 -6.546875 3.390625 -6.503906 3.640625 -6.421875 C 3.890625 -6.347656 4.113281 -6.238281 4.3125 -6.09375 C 4.519531 -5.957031 4.691406 -5.789062 4.828125 -5.59375 C 4.972656 -5.394531 5.066406 -5.175781 5.109375 -4.9375 L 3.9375 -4.65625 C 3.882812 -4.875 3.769531 -5.050781 3.59375 -5.1875 C 3.414062 -5.332031 3.171875 -5.40625 2.859375 -5.40625 C 2.742188 -5.40625 2.628906 -5.390625 2.515625 -5.359375 C 2.398438 -5.328125 2.289062 -5.28125 2.1875 -5.21875 C 2.09375 -5.15625 2.007812 -5.078125 1.9375 -4.984375 C 1.875 -4.898438 1.84375 -4.800781 1.84375 -4.6875 C 1.84375 -4.5625 1.878906 -4.453125 1.953125 -4.359375 C 2.035156 -4.265625 2.128906 -4.1875 2.234375 -4.125 C 2.335938 -4.070312 2.453125 -4.023438 2.578125 -3.984375 C 2.703125 -3.953125 2.820312 -3.925781 2.9375 -3.90625 C 3.40625 -3.78125 3.796875 -3.648438 4.109375 -3.515625 C 4.429688 -3.390625 4.6875 -3.242188 4.875 -3.078125 C 5.0625 -2.921875 5.191406 -2.742188 5.265625 -2.546875 C 5.335938 -2.359375 5.375 -2.140625 5.375 -1.890625 C 5.375 -1.609375 5.304688 -1.34375 5.171875 -1.09375 C 5.046875 -0.84375 4.867188 -0.625 4.640625 -0.4375 C 4.421875 -0.25 4.148438 -0.101562 3.828125 0 C 3.503906 0.09375 3.160156 0.140625 2.796875 0.140625 C 2.242188 0.140625 1.75 0.00390625 1.3125 -0.265625 C 0.875 -0.535156 0.582031 -0.898438 0.4375 -1.359375 L 1.53125 -1.859375 C 1.675781 -1.546875 1.859375 -1.332031 2.078125 -1.21875 C 2.304688 -1.101562 2.566406 -1.046875 2.859375 -1.046875 C 3.210938 -1.046875 3.507812 -1.144531 3.75 -1.34375 Z M 3.75 -1.34375 "/></g></g></g><g fill="#000000" fill-opacity="1"><g transform="translate(21.994854, 14.652775)"><g><path d="M 2.109375 0 L 0.8125 0 L 0.8125 -6.4375 L 2.09375 -6.4375 Z M 1.453125 -7.84375 C 1.222656 -7.84375 1.023438 -7.925781 0.859375 -8.09375 C 0.703125 -8.257812 0.625 -8.457031 0.625 -8.6875 C 0.625 -8.925781 0.703125 -9.125 0.859375 -9.28125 C 1.023438 -9.445312 1.222656 -9.53125 1.453125 -9.53125 C 1.679688 -9.53125 1.875 -9.445312 2.03125 -9.28125 C 2.195312 -9.125 2.28125 -8.925781 2.28125 -8.6875 C 2.28125 -8.457031 2.195312 -8.257812 2.03125 -8.09375 C 1.875 -7.925781 1.679688 -7.84375 1.453125 -7.84375 Z M 1.453125 -7.84375 "/></g></g></g><g fill="#000000" fill-opacity="1"><g transform="translate(24.820583, 14.652775)"><g><path d="M 6.859375 -6.4375 L 6.859375 0 L 5.765625 0 L 5.5625 -0.734375 C 5.332031 -0.441406 5.039062 -0.21875 4.6875 -0.0625 C 4.34375 0.0820312 3.988281 0.15625 3.625 0.15625 C 3.175781 0.15625 2.757812 0.0703125 2.375 -0.09375 C 1.988281 -0.269531 1.648438 -0.507812 1.359375 -0.8125 C 1.066406 -1.125 0.832031 -1.484375 0.65625 -1.890625 C 0.488281 -2.304688 0.40625 -2.75 0.40625 -3.21875 C 0.40625 -3.6875 0.488281 -4.125 0.65625 -4.53125 C 0.832031 -4.945312 1.066406 -5.304688 1.359375 -5.609375 C 1.648438 -5.910156 1.988281 -6.148438 2.375 -6.328125 C 2.757812 -6.503906 3.175781 -6.59375 3.625 -6.59375 C 3.988281 -6.59375 4.335938 -6.519531 4.671875 -6.375 C 5.003906 -6.238281 5.300781 -6.023438 5.5625 -5.734375 L 5.765625 -6.4375 Z M 3.625 -1 C 3.882812 -1 4.128906 -1.054688 4.359375 -1.171875 C 4.597656 -1.285156 4.800781 -1.441406 4.96875 -1.640625 C 5.144531 -1.847656 5.28125 -2.085938 5.375 -2.359375 C 5.476562 -2.628906 5.53125 -2.914062 5.53125 -3.21875 C 5.53125 -3.519531 5.476562 -3.804688 5.375 -4.078125 C 5.28125 -4.347656 5.144531 -4.582031 4.96875 -4.78125 C 4.800781 -4.976562 4.597656 -5.132812 4.359375 -5.25 C 4.128906 -5.375 3.882812 -5.4375 3.625 -5.4375 C 3.363281 -5.4375 3.117188 -5.375 2.890625 -5.25 C 2.660156 -5.132812 2.457031 -4.976562 2.28125 -4.78125 C 2.113281 -4.582031 1.976562 -4.347656 1.875 -4.078125 C 1.78125 -3.804688 1.734375 -3.519531 1.734375 -3.21875 C 1.734375 -2.914062 1.78125 -2.628906 1.875 -2.359375 C 1.976562 -2.085938 2.113281 -1.847656 2.28125 -1.640625 C 2.457031 -1.441406 2.660156 -1.285156 2.890625 -1.171875 C 3.117188 -1.054688 3.363281 -1 3.625 -1 Z M 3.625 -1 "/></g></g></g><g fill="#000000" fill-opacity="1"><g transform="translate(32.261653, 14.652775)"><g><path d="M 2.0625 0 L 0.75 0 L 0.75 -9.828125 L 2.0625 -9.828125 L 2.0625 -5.859375 C 2.300781 -6.117188 2.550781 -6.304688 2.8125 -6.421875 C 3.082031 -6.535156 3.390625 -6.59375 3.734375 -6.59375 C 4.179688 -6.59375 4.582031 -6.503906 4.9375 -6.328125 C 5.289062 -6.148438 5.59375 -5.910156 5.84375 -5.609375 C 6.101562 -5.304688 6.296875 -4.945312 6.421875 -4.53125 C 6.554688 -4.125 6.625 -3.6875 6.625 -3.21875 L 6.625 0 L 5.296875 0 L 5.296875 -3.21875 C 5.296875 -3.519531 5.253906 -3.804688 5.171875 -4.078125 C 5.085938 -4.347656 4.96875 -4.582031 4.8125 -4.78125 C 4.664062 -4.976562 4.492188 -5.128906 4.296875 -5.234375 C 4.109375 -5.347656 3.90625 -5.40625 3.6875 -5.40625 C 3.5 -5.40625 3.3125 -5.363281 3.125 -5.28125 C 2.9375 -5.207031 2.765625 -5.085938 2.609375 -4.921875 C 2.453125 -4.753906 2.320312 -4.53125 2.21875 -4.25 C 2.113281 -3.96875 2.0625 -3.628906 2.0625 -3.234375 Z M 2.0625 0 "/></g></g></g><g fill="#000000" fill-opacity="1"><g transform="translate(2.282072, 28.419221)"><g><path d="M 4.59375 -9.53125 C 4.976562 -9.53125 5.332031 -9.457031 5.65625 -9.3125 C 5.988281 -9.175781 6.28125 -8.984375 6.53125 -8.734375 C 6.78125 -8.492188 6.972656 -8.210938 7.109375 -7.890625 C 7.253906 -7.566406 7.328125 -7.210938 7.328125 -6.828125 C 7.328125 -6.453125 7.253906 -6.097656 7.109375 -5.765625 C 6.972656 -5.441406 6.78125 -5.15625 6.53125 -4.90625 C 6.28125 -4.664062 5.988281 -4.472656 5.65625 -4.328125 C 5.332031 -4.191406 4.976562 -4.125 4.59375 -4.125 L 2.125 -4.109375 L 2.125 0 L 0.71875 0 L 0.71875 -9.53125 Z M 4.59375 -5.4375 C 4.789062 -5.4375 4.96875 -5.472656 5.125 -5.546875 C 5.289062 -5.617188 5.4375 -5.71875 5.5625 -5.84375 C 5.695312 -5.976562 5.796875 -6.128906 5.859375 -6.296875 C 5.929688 -6.472656 5.96875 -6.660156 5.96875 -6.859375 C 5.96875 -7.054688 5.929688 -7.238281 5.859375 -7.40625 C 5.796875 -7.582031 5.695312 -7.734375 5.5625 -7.859375 C 5.4375 -7.992188 5.289062 -8.097656 5.125 -8.171875 C 4.96875 -8.242188 4.789062 -8.28125 4.59375 -8.28125 L 2.125 -8.28125 L 2.125 -5.4375 Z M 4.59375 -5.4375 "/></g></g></g><g fill="#000000" fill-opacity="1"><g transform="translate(10.113363, 28.419221)"><g><path d="M 5.171875 -9.671875 C 5.816406 -9.671875 6.425781 -9.539062 7 -9.28125 C 7.582031 -9.019531 8.082031 -8.664062 8.5 -8.21875 C 8.925781 -7.78125 9.265625 -7.257812 9.515625 -6.65625 C 9.773438 -6.0625 9.90625 -5.4375 9.90625 -4.78125 C 9.90625 -4.101562 9.773438 -3.46875 9.515625 -2.875 C 9.265625 -2.28125 8.925781 -1.757812 8.5 -1.3125 C 8.070312 -0.875 7.570312 -0.523438 7 -0.265625 C 6.425781 -0.00390625 5.816406 0.125 5.171875 0.125 C 4.523438 0.125 3.910156 -0.00390625 3.328125 -0.265625 C 2.753906 -0.523438 2.253906 -0.875 1.828125 -1.3125 C 1.410156 -1.757812 1.078125 -2.28125 0.828125 -2.875 C 0.578125 -3.46875 0.453125 -4.101562 0.453125 -4.78125 C 0.453125 -5.4375 0.578125 -6.0625 0.828125 -6.65625 C 1.078125 -7.257812 1.414062 -7.78125 1.84375 -8.21875 C 2.269531 -8.664062 2.769531 -9.019531 3.34375 -9.28125 C 3.914062 -9.539062 4.523438 -9.671875 5.171875 -9.671875 Z M 5.171875 -1.203125 C 5.628906 -1.203125 6.054688 -1.296875 6.453125 -1.484375 C 6.859375 -1.671875 7.207031 -1.925781 7.5 -2.25 C 7.800781 -2.570312 8.035156 -2.945312 8.203125 -3.375 C 8.378906 -3.8125 8.46875 -4.28125 8.46875 -4.78125 C 8.46875 -5.269531 8.378906 -5.726562 8.203125 -6.15625 C 8.035156 -6.59375 7.800781 -6.972656 7.5 -7.296875 C 7.207031 -7.617188 6.859375 -7.867188 6.453125 -8.046875 C 6.054688 -8.234375 5.628906 -8.328125 5.171875 -8.328125 C 4.722656 -8.328125 4.296875 -8.234375 3.890625 -8.046875 C 3.492188 -7.867188 3.144531 -7.617188 2.84375 -7.296875 C 2.550781 -6.972656 2.316406 -6.59375 2.140625 -6.15625 C 1.972656 -5.726562 1.890625 -5.269531 1.890625 -4.78125 C 1.890625 -4.28125 1.972656 -3.8125 2.140625 -3.375 C 2.316406 -2.945312 2.550781 -2.570312 2.84375 -2.25 C 3.144531 -1.925781 3.492188 -1.671875 3.890625 -1.484375 C 4.296875 -1.296875 4.722656 -1.203125 5.171875 -1.203125 Z M 5.171875 -1.203125 "/></g></g></g><g fill="#000000" fill-opacity="1"><g transform="translate(20.433985, 28.419221)"><g><path d="M 11.078125 -9.53125 L 12.65625 -9.53125 L 9.796875 0 L 8.421875 0 L 6.640625 -5.9375 L 6.421875 -7.015625 L 6.171875 -5.875 L 4.40625 0 L 3.03125 0 L 0.15625 -9.53125 L 1.703125 -9.53125 L 3.671875 -2.28125 L 5.890625 -9.53125 L 6.953125 -9.53125 L 9.140625 -2.34375 Z M 11.078125 -9.53125 "/></g></g></g><g fill="#000000" fill-opacity="1"><g transform="translate(33.311215, 28.419221)"><g><path d="M 6.578125 -9.53125 L 6.578125 -8.28125 L 2.15625 -8.28125 L 2.15625 -5.671875 L 6.09375 -5.671875 L 6.09375 -4.375 L 2.15625 -4.375 L 2.15625 -1.3125 L 6.578125 -1.3125 L 6.578125 0 L 0.75 0 L 0.75 -9.53125 Z M 6.578125 -9.53125 "/></g></g></g><g fill="#000000" fill-opacity="1"><g transform="translate(40.698463, 28.419221)"><g><path d="M 8.625 0 L 6.859375 0 L 3.859375 -4.109375 L 2.1875 -4.109375 L 2.1875 0 L 0.78125 0 L 0.78125 -9.53125 L 4.65625 -9.53125 C 5.03125 -9.53125 5.382812 -9.457031 5.71875 -9.3125 C 6.0625 -9.175781 6.351562 -8.984375 6.59375 -8.734375 C 6.84375 -8.492188 7.039062 -8.210938 7.1875 -7.890625 C 7.332031 -7.566406 7.40625 -7.210938 7.40625 -6.828125 C 7.40625 -6.515625 7.351562 -6.21875 7.25 -5.9375 C 7.15625 -5.664062 7.019531 -5.414062 6.84375 -5.1875 C 6.664062 -4.96875 6.457031 -4.773438 6.21875 -4.609375 C 5.976562 -4.441406 5.710938 -4.316406 5.421875 -4.234375 Z M 4.65625 -5.4375 C 4.84375 -5.4375 5.019531 -5.472656 5.1875 -5.546875 C 5.363281 -5.617188 5.507812 -5.71875 5.625 -5.84375 C 5.75 -5.976562 5.847656 -6.128906 5.921875 -6.296875 C 5.992188 -6.472656 6.03125 -6.660156 6.03125 -6.859375 C 6.03125 -7.054688 5.992188 -7.238281 5.921875 -7.40625 C 5.847656 -7.582031 5.75 -7.734375 5.625 -7.859375 C 5.507812 -7.992188 5.363281 -8.097656 5.1875 -8.171875 C 5.019531 -8.242188 4.84375 -8.28125 4.65625 -8.28125 L 2.1875 -8.28125 L 2.1875 -5.421875 Z M 4.65625 -5.4375 "/></g></g></g><g fill="#000000" fill-opacity="1"><g transform="translate(49.525493, 28.419221)"><g><path d="M 7.109375 -2.671875 C 7.109375 -2.273438 7.023438 -1.898438 6.859375 -1.546875 C 6.703125 -1.203125 6.46875 -0.898438 6.15625 -0.640625 C 5.539062 -0.117188 4.75 0.140625 3.78125 0.140625 C 3.03125 0.140625 2.347656 -0.015625 1.734375 -0.328125 C 1.128906 -0.640625 0.679688 -1.054688 0.390625 -1.578125 L 1.59375 -2.1875 C 1.769531 -1.863281 2.050781 -1.613281 2.4375 -1.4375 C 2.832031 -1.269531 3.28125 -1.1875 3.78125 -1.1875 C 5.082031 -1.1875 5.734375 -1.679688 5.734375 -2.671875 C 5.734375 -2.859375 5.695312 -3.019531 5.625 -3.15625 C 5.5625 -3.289062 5.460938 -3.414062 5.328125 -3.53125 C 5.003906 -3.800781 4.425781 -4.046875 3.59375 -4.265625 C 3.09375 -4.390625 2.664062 -4.523438 2.3125 -4.671875 C 1.96875 -4.828125 1.675781 -5.007812 1.4375 -5.21875 C 0.875 -5.675781 0.59375 -6.28125 0.59375 -7.03125 C 0.59375 -7.40625 0.664062 -7.753906 0.8125 -8.078125 C 0.957031 -8.410156 1.164062 -8.703125 1.4375 -8.953125 C 1.71875 -9.191406 2.039062 -9.367188 2.40625 -9.484375 C 2.78125 -9.609375 3.191406 -9.671875 3.640625 -9.671875 C 4.296875 -9.671875 4.898438 -9.546875 5.453125 -9.296875 C 6.003906 -9.046875 6.425781 -8.691406 6.71875 -8.234375 L 5.625 -7.5625 C 5.363281 -7.875 5.0625 -8.09375 4.71875 -8.21875 C 4.375 -8.351562 4.015625 -8.421875 3.640625 -8.421875 C 3.367188 -8.421875 3.117188 -8.375 2.890625 -8.28125 C 2.671875 -8.195312 2.488281 -8.09375 2.34375 -7.96875 C 2.21875 -7.851562 2.125 -7.71875 2.0625 -7.5625 C 2.007812 -7.40625 1.984375 -7.238281 1.984375 -7.0625 C 1.984375 -6.945312 2 -6.828125 2.03125 -6.703125 C 2.0625 -6.585938 2.144531 -6.460938 2.28125 -6.328125 C 2.414062 -6.203125 2.613281 -6.078125 2.875 -5.953125 C 3.132812 -5.828125 3.488281 -5.707031 3.9375 -5.59375 C 4.476562 -5.457031 4.929688 -5.3125 5.296875 -5.15625 C 5.671875 -5 5.984375 -4.8125 6.234375 -4.59375 C 6.816406 -4.113281 7.109375 -3.472656 7.109375 -2.671875 Z M 7.109375 -2.671875 "/></g></g></g></svg>