<svg xmlns="http://www.w3.org/2000/svg" xmlns:xlink="http://www.w3.org/1999/xlink" zoomAndPan="magnify" preserveAspectRatio="xMidYMid meet" version="1.0" viewBox="54.39 173.92 265.67 20.16">
    <defs>
        <g/>
    </defs>
    <g fill="#000000" fill-opacity="1">
        <g transform="translate(54.261901, 192.667355)">
            <g>
                <path d="M 7.863281 -4.332031 L 7.863281 -17.535156 L 6.058594 -17.535156 L 6.058594 -4.332031 C 6.058594 -3.222656 5.621094 -2.449219 4.796875 -1.984375 C 4.101562 -1.574219 3.25 -1.445312 2.242188 -1.574219 C 1.316406 -1.675781 0.59375 -1.933594 0.128906 -2.347656 L 0.128906 -0.359375 C 0.285156 -0.207031 0.59375 -0.078125 1.058594 0.0507812 C 1.519531 0.179688 2.035156 0.257812 2.605469 0.257812 C 3.996094 0.308594 5.15625 0.0273438 6.085938 -0.617188 C 7.269531 -1.390625 7.863281 -2.628906 7.863281 -4.332031 Z M 7.863281 -4.332031 "/>
            </g>
        </g>
    </g>
    <g fill="#000000" fill-opacity="1">
        <g transform="translate(70.763826, 192.667355)">
            <g>
                <path d="M 4.769531 -6.445312 L 7.96875 -14.515625 L 11.140625 -6.445312 Z M 15.652344 0 L 7.96875 -18.746094 L 0.257812 0 L 2.21875 0 L 4.101562 -4.769531 L 11.808594 -4.769531 L 13.691406 0 Z M 15.652344 0 "/>
            </g>
        </g>
    </g>
    <g fill="#000000" fill-opacity="1">
        <g transform="translate(93.76262, 192.667355)">
            <g>
                <path d="M 6.78125 -8.25 C 9.050781 -7.710938 10.597656 -7.117188 11.421875 -6.445312 C 11.988281 -5.980469 12.273438 -5.390625 12.273438 -4.667969 C 12.273438 -3.945312 12.117188 -3.351562 11.808594 -2.941406 C 11.035156 -1.855469 9.644531 -1.316406 7.683594 -1.316406 C 4.949219 -1.316406 3.402344 -2.242188 3.070312 -4.101562 L 0.953125 -4.101562 C 1.574219 -1.132812 3.816406 0.335938 7.683594 0.335938 C 9.410156 0.335938 10.855469 -0.0273438 12.015625 -0.800781 C 13.40625 -1.703125 14.128906 -3.042969 14.128906 -4.796875 C 14.128906 -6.238281 13.5625 -7.347656 12.429688 -8.121094 C 11.628906 -8.691406 10.339844 -9.207031 8.5625 -9.667969 C 6.753906 -10.132812 5.59375 -10.519531 5.054688 -10.804688 C 3.867188 -11.398438 3.273438 -12.222656 3.300781 -13.304688 C 3.300781 -13.871094 3.402344 -14.363281 3.660156 -14.722656 C 4.332031 -15.730469 5.519531 -16.246094 7.21875 -16.246094 C 9.617188 -16.246094 10.984375 -15.472656 11.34375 -13.976562 L 13.304688 -13.976562 C 12.660156 -16.503906 10.625 -17.792969 7.21875 -17.792969 C 5.671875 -17.792969 4.304688 -17.378906 3.171875 -16.554688 C 2.011719 -15.730469 1.417969 -14.515625 1.417969 -12.867188 C 1.417969 -10.625 3.222656 -9.078125 6.78125 -8.25 Z M 6.78125 -8.25 "/>
            </g>
        </g>
    </g>
    <g fill="#000000" fill-opacity="1">
        <g transform="translate(115.652812, 192.667355)">
            <g>
                <path d="M 3.738281 0 L 3.738281 -17.535156 L 1.933594 -17.535156 L 1.933594 0 Z M 3.738281 0 "/>
            </g>
        </g>
    </g>
    <g fill="#000000" fill-opacity="1">
        <g transform="translate(128.416458, 192.667355)">
            <g>
                <path d="M 4.769531 -6.445312 L 7.96875 -14.515625 L 11.140625 -6.445312 Z M 15.652344 0 L 7.96875 -18.746094 L 0.257812 0 L 2.21875 0 L 4.101562 -4.769531 L 11.808594 -4.769531 L 13.691406 0 Z M 15.652344 0 "/>
            </g>
        </g>
    </g>
    <g fill="#000000" fill-opacity="1">
        <g transform="translate(151.415253, 192.667355)">
            <g>
                <path d="M 3.738281 0 L 3.738281 -7.839844 L 11.707031 -7.839844 L 11.707031 0 L 13.511719 0 L 13.511719 -17.535156 L 11.707031 -17.535156 L 11.707031 -9.644531 L 3.738281 -9.644531 L 3.738281 -17.535156 L 1.933594 -17.535156 L 1.933594 0 Z M 3.738281 0 "/>
            </g>
        </g>
    </g>
    <g fill="#000000" fill-opacity="1">
        <g transform="translate(173.949972, 192.667355)">
            <g/>
        </g>
    </g>
    <g fill="#000000" fill-opacity="1">
        <g transform="translate(188.002675, 192.667355)">
            <g>
                <path d="M 3.738281 -8.691406 L 3.738281 -15.804688 L 7.8125 -15.804688 C 8.871094 -15.804688 9.722656 -15.472656 10.367188 -14.828125 C 10.984375 -14.15625 11.320312 -13.332031 11.320312 -12.300781 C 11.320312 -11.242188 10.984375 -10.390625 10.3125 -9.695312 C 9.644531 -9.023438 8.820312 -8.691406 7.8125 -8.691406 Z M 13.125 -12.246094 C 13.125 -13.796875 12.558594 -15.058594 11.472656 -16.0625 C 10.390625 -17.042969 9.101562 -17.535156 7.554688 -17.535156 L 1.933594 -17.535156 L 1.933594 0 L 3.738281 0 L 3.738281 -6.9375 L 7.554688 -6.9375 C 9.101562 -6.9375 10.417969 -7.425781 11.472656 -8.40625 C 12.558594 -9.4375 13.125 -10.699219 13.125 -12.246094 Z M 13.125 -12.246094 "/>
            </g>
        </g>
    </g>
    <g fill="#000000" fill-opacity="1">
        <g transform="translate(208.732719, 192.667355)">
            <g>
                <path d="M 17.378906 -8.820312 C 17.378906 -6.808594 16.65625 -5.105469 15.265625 -3.714844 C 13.847656 -2.292969 12.144531 -1.597656 10.160156 -1.597656 C 8.175781 -1.597656 6.472656 -2.292969 5.078125 -3.714844 C 3.660156 -5.105469 2.964844 -6.808594 2.964844 -8.820312 C 2.964844 -10.777344 3.660156 -12.480469 5.078125 -13.898438 C 6.472656 -15.289062 8.175781 -16.011719 10.160156 -16.011719 C 12.144531 -16.011719 13.847656 -15.289062 15.265625 -13.898438 C 16.65625 -12.480469 17.378906 -10.777344 17.378906 -8.820312 Z M 19.183594 -8.820312 C 19.183594 -10.054688 18.925781 -11.214844 18.460938 -12.324219 C 17.996094 -13.40625 17.351562 -14.363281 16.527344 -15.1875 C 15.703125 -15.988281 14.75 -16.632812 13.667969 -17.09375 C 12.558594 -17.558594 11.398438 -17.816406 10.160156 -17.816406 C 8.921875 -17.816406 7.734375 -17.558594 6.652344 -17.09375 C 5.570312 -16.632812 4.617188 -15.988281 3.789062 -15.1875 C 2.964844 -14.363281 2.320312 -13.40625 1.855469 -12.324219 C 1.390625 -11.214844 1.160156 -10.054688 1.160156 -8.820312 C 1.160156 -7.582031 1.390625 -6.394531 1.855469 -5.3125 C 2.320312 -4.203125 2.964844 -3.25 3.789062 -2.421875 C 4.617188 -1.597656 5.570312 -0.953125 6.652344 -0.488281 C 7.734375 -0.0273438 8.921875 0.207031 10.160156 0.207031 C 11.398438 0.207031 12.558594 -0.0273438 13.667969 -0.488281 C 14.75 -0.953125 15.703125 -1.597656 16.527344 -2.421875 C 17.351562 -3.25 17.996094 -4.203125 18.460938 -5.3125 C 18.925781 -6.394531 19.183594 -7.582031 19.183594 -8.820312 Z M 19.183594 -8.820312 "/>
            </g>
        </g>
    </g>
    <g fill="#000000" fill-opacity="1">
        <g transform="translate(236.165887, 192.667355)">
            <g>
                <path d="M 15.859375 1.417969 L 19.933594 -17.535156 L 18.101562 -17.535156 L 15.367188 -4.796875 L 10.109375 -18.566406 L 4.820312 -4.796875 L 2.113281 -17.535156 L 0.257812 -17.535156 L 4.359375 1.417969 L 10.109375 -13.847656 Z M 15.859375 1.417969 "/>
            </g>
        </g>
    </g>
    <g fill="#000000" fill-opacity="1">
        <g transform="translate(263.444365, 192.667355)">
            <g>
                <path d="M 12.351562 0 L 12.351562 -1.675781 L 3.738281 -1.675781 L 3.738281 -7.914062 L 12.09375 -7.914062 L 12.09375 -9.617188 L 3.738281 -9.617188 L 3.738281 -15.859375 L 12.351562 -15.859375 L 12.351562 -17.535156 L 1.933594 -17.535156 L 1.933594 0 Z M 12.351562 0 "/>
            </g>
        </g>
    </g>
    <g fill="#000000" fill-opacity="1">
        <g transform="translate(284.818929, 192.667355)">
            <g>
                <path d="M 3.738281 -8.664062 L 3.738281 -15.804688 L 7.8125 -15.804688 C 8.871094 -15.804688 9.722656 -15.472656 10.367188 -14.800781 C 10.984375 -14.128906 11.320312 -13.304688 11.320312 -12.273438 C 11.320312 -11.242188 10.984375 -10.390625 10.3125 -9.695312 C 9.644531 -9 8.820312 -8.664062 7.8125 -8.664062 Z M 13.125 -12.246094 C 13.125 -13.742188 12.558594 -15.03125 11.472656 -16.039062 C 10.417969 -17.019531 9.101562 -17.535156 7.554688 -17.535156 L 1.933594 -17.535156 L 1.933594 0 L 3.738281 0 L 3.738281 -6.9375 L 5.828125 -6.9375 L 10.984375 0 L 13.40625 0 L 7.992188 -6.9375 C 9.359375 -7.011719 10.519531 -7.503906 11.472656 -8.40625 C 12.558594 -9.410156 13.125 -10.699219 13.125 -12.246094 Z M 13.125 -12.246094 "/>
            </g>
        </g>
    </g>
    <g fill="#000000" fill-opacity="1">
        <g transform="translate(305.935703, 192.667355)">
            <g>
                <path d="M 6.78125 -8.25 C 9.050781 -7.710938 10.597656 -7.117188 11.421875 -6.445312 C 11.988281 -5.980469 12.273438 -5.390625 12.273438 -4.667969 C 12.273438 -3.945312 12.117188 -3.351562 11.808594 -2.941406 C 11.035156 -1.855469 9.644531 -1.316406 7.683594 -1.316406 C 4.949219 -1.316406 3.402344 -2.242188 3.070312 -4.101562 L 0.953125 -4.101562 C 1.574219 -1.132812 3.816406 0.335938 7.683594 0.335938 C 9.410156 0.335938 10.855469 -0.0273438 12.015625 -0.800781 C 13.40625 -1.703125 14.128906 -3.042969 14.128906 -4.796875 C 14.128906 -6.238281 13.5625 -7.347656 12.429688 -8.121094 C 11.628906 -8.691406 10.339844 -9.207031 8.5625 -9.667969 C 6.753906 -10.132812 5.59375 -10.519531 5.054688 -10.804688 C 3.867188 -11.398438 3.273438 -12.222656 3.300781 -13.304688 C 3.300781 -13.871094 3.402344 -14.363281 3.660156 -14.722656 C 4.332031 -15.730469 5.519531 -16.246094 7.21875 -16.246094 C 9.617188 -16.246094 10.984375 -15.472656 11.34375 -13.976562 L 13.304688 -13.976562 C 12.660156 -16.503906 10.625 -17.792969 7.21875 -17.792969 C 5.671875 -17.792969 4.304688 -17.378906 3.171875 -16.554688 C 2.011719 -15.730469 1.417969 -14.515625 1.417969 -12.867188 C 1.417969 -10.625 3.222656 -9.078125 6.78125 -8.25 Z M 6.78125 -8.25 "/>
            </g>
        </g>
    </g>
</svg>